<?xml version="1.0" standalone="no"?>
<!DOCTYPE svg PUBLIC "-//W3C//DTD SVG 20010904//EN"
 "http://www.w3.org/TR/2001/REC-SVG-20010904/DTD/svg10.dtd">
<svg version="1.0" xmlns="http://www.w3.org/2000/svg"
 width="200.000000pt" height="200.000000pt" viewBox="0 0 200.000000 200.000000"
 preserveAspectRatio="xMidYMid meet">

<g transform="translate(0.000000,200.000000) scale(0.100000,-0.100000)"
fill="#000000" stroke="none">
<path d="M565 1733 c-67 -23 -146 -101 -168 -167 -9 -27 -17 -75 -17 -107 0
-114 52 -198 152 -248 137 -69 295 -19 375 116 39 68 44 172 11 244 -34 75
-70 114 -133 144 -69 34 -152 41 -220 18z"/>
<path d="M321 1114 c-151 -114 -230 -282 -231 -491 l0 -83 516 0 517 0 -6 35
c-9 56 11 154 45 224 l31 65 -34 65 c-37 72 -141 184 -200 215 l-36 19 -34
-26 c-122 -92 -304 -95 -443 -7 -26 17 -51 30 -55 30 -5 0 -36 -20 -70 -46z"/>
<path d="M1468 927 c-161 -61 -246 -188 -236 -353 6 -95 41 -167 113 -233 95
-86 223 -109 350 -60 82 31 163 112 194 194 30 80 27 197 -7 268 -33 66 -103
134 -170 164 -68 32 -186 41 -244 20z m167 -187 l60 60 40 -40 40 -40 -60 -60
-59 -60 59 -60 59 -60 -39 -40 -39 -40 -61 60 -61 60 -59 -60 -60 -60 -40 40
-40 40 60 60 59 60 -59 60 -59 60 39 40 39 40 61 -60 61 -60 59 60z"/>
</g>
</svg>
