<?xml version="1.0" standalone="no"?>
<!DOCTYPE svg PUBLIC "-//W3C//DTD SVG 20010904//EN"
 "http://www.w3.org/TR/2001/REC-SVG-20010904/DTD/svg10.dtd">
<svg version="1.0" xmlns="http://www.w3.org/2000/svg"
 width="200.000000pt" height="200.000000pt" viewBox="0 0 200.000000 200.000000"
 preserveAspectRatio="xMidYMid meet">

<g transform="translate(0.000000,200.000000) scale(0.100000,-0.100000)"
fill="#000000" stroke="none">
<path d="M807 1584 c-58 -18 -121 -78 -150 -143 -15 -33 -22 -73 -25 -142 -5
-116 9 -170 73 -292 25 -47 45 -98 45 -113 0 -39 -35 -65 -210 -159 -86 -46
-164 -95 -175 -109 -21 -29 -32 -130 -21 -191 l7 -35 549 0 549 0 7 35 c10 56
0 159 -18 188 -11 15 -78 58 -170 107 -190 103 -218 123 -218 158 0 15 25 77
57 139 l57 112 4 113 c3 98 1 121 -18 171 -26 70 -58 109 -117 144 -56 32
-155 40 -226 17z"/>
<path d="M1470 1584 c-138 -60 -165 -258 -47 -348 50 -39 117 -53 174 -37 98
26 153 97 153 196 0 149 -146 247 -280 189z"/>
<path d="M1322 1116 c-45 -79 -43 -84 28 -86 30 0 39 -7 70 -51 l34 -51 45 91
c25 50 48 91 51 91 3 0 26 -41 51 -91 l45 -90 33 46 34 47 53 -4 c30 -3 54 -3
54 -1 0 7 -80 163 -84 163 -2 0 -30 -14 -62 -31 -54 -28 -66 -30 -135 -27 -64
2 -83 8 -126 34 l-50 32 -41 -72z"/>
</g>
</svg>
